<?xml version="1.0" encoding="UTF-8"?>
<svg width="240px" height="24px" viewBox="0 0 240 24" version="1.1" xmlns="http://www.w3.org/2000/svg" xmlns:xlink="http://www.w3.org/1999/xlink">
    <!-- Generator: sketchtool 50 (54983) - http://www.bohemiancoding.com/sketch -->
    <title>C81A57AA-5712-43C7-86A0-1CD82B54D7BF</title>
    <desc>Created with sketchtool.</desc>
    <defs></defs>
    <g id="Designs" stroke="none" stroke-width="1" fill="none" fill-rule="evenodd">
        <g id="Form-elements" transform="translate(-54.000000, -54.000000)">
            <g id="logo" transform="translate(54.000000, 54.000000)">
                <path d="M29.0817903,0.507265522 C30.5219157,1.01453358 31.2419676,1.69088085 31.2419676,2.53632761 C31.2419676,2.81109781 31.1130031,3.32892618 30.8550702,4.08982827 L24.6647113,21.6856011 C24.6217225,21.8335542 24.5464932,22.013209 24.4390211,22.2245707 C24.3315491,22.4359324 24.0467524,22.7159824 23.5846226,23.0647292 C23.1224928,23.413476 22.5743936,23.5878468 21.9403085,23.5878468 C21.3062235,23.5878468 20.7581242,23.413476 20.2959944,23.0647292 C19.8338646,22.7159824 19.5275739,22.3725248 19.377113,22.0343461 L15.6048631,11.0964333 C13.2189837,18.0290968 12.0045678,21.558784 11.9615789,21.6856011 C11.9185901,21.8124181 11.8218667,21.9920728 11.6714059,22.2245707 C11.520945,22.4570685 11.3489923,22.6684271 11.1555426,22.8586526 C10.6611712,23.3447845 10.0700838,23.5878468 9.38226272,23.5878468 C8.69444163,23.5878468 8.13022185,23.4293279 7.68958646,23.1122853 C7.24895107,22.7952428 6.95340738,22.478205 6.80294651,22.1611625 L6.57725634,21.6856011 L0.354655979,4.08982827 C0.118217478,3.39233469 0,2.87450631 0,2.53632761 C0,1.69088085 0.720051909,1.02510151 2.16017733,0.538969617 C2.7835152,0.327607926 3.34773498,0.221928666 3.85285359,0.221928666 C4.35797221,0.221928666 4.74486577,0.391015482 5.01354589,0.729194188 C5.282226,1.06737289 5.52403448,1.58520127 5.73897857,2.28269485 L9.28553837,12.8718626 L12.7998567,2.44121532 C13.1007784,1.55349622 13.6488776,0.940556513 14.4441708,0.602377807 C14.7880813,0.454424624 15.2340836,0.380449141 15.7821911,0.380449141 C16.3302985,0.380449141 16.8407831,0.554819921 17.3136601,0.903566711 C17.7865371,1.2523135 18.0874543,1.5957711 18.2164208,1.9339498 L21.9241878,12.9352708 L25.4707476,2.28269485 C25.6427029,1.79656296 25.7824144,1.43725347 25.8898865,1.20475561 C25.9973585,0.972257754 26.1961788,0.745047345 26.4863534,0.523117569 C26.7765279,0.301187794 27.1365538,0.190224571 27.566442,0.190224571 C27.9963302,0.190224571 28.5014412,0.295903831 29.0817903,0.507265522 Z M44.1063072,0.0951122853 C47.2874798,0.0951122853 50.04947,1.22588037 52.3923606,3.48745046 C54.7352512,5.74902055 55.9066789,8.55480491 55.9066789,11.9048877 C55.9066789,15.2549705 54.7889864,18.1083105 52.5535678,20.4649934 C50.3181493,22.8216762 47.5669062,24 44.299756,24 C41.0326057,24 38.254495,22.8375281 35.9653404,20.5125495 C33.6761859,18.1875709 32.5316257,15.4187743 32.5316257,12.2060766 C32.5316257,10.4517746 32.854037,8.80846209 33.4988693,7.27608983 C34.1437016,5.74371757 35.0034651,4.45971456 36.0781855,3.42404227 C37.152906,2.38836999 38.388816,1.57463968 39.7859526,0.982826948 C41.1830892,0.391014214 42.623193,0.0951122853 44.1063072,0.0951122853 Z M40.0922464,16.6287979 C41.3281749,17.8018553 42.70917,18.3883752 44.235273,18.3883752 C45.7613761,18.3883752 47.1369977,17.8177072 48.362179,16.676354 C49.5873603,15.5350009 50.1999418,14.0026516 50.1999418,12.0792602 C50.1999418,10.1558689 49.5819868,8.61295165 48.3460583,7.45046235 C47.1101297,6.28797305 45.7291346,5.70673712 44.2030316,5.70673712 C42.6769285,5.70673712 41.301307,6.29325701 40.0761257,7.4663144 C38.8509443,8.63937178 38.2383629,10.1664371 38.2383629,12.0475561 C38.2383629,13.9286752 38.8563178,15.4557405 40.0922464,16.6287979 Z M76.0898283,19.6882431 C76.4122444,20.4491452 76.5734501,20.9986773 76.5734501,21.336856 C76.5734501,22.1400304 75.9071334,22.8163777 74.57448,23.3659181 C73.8866589,23.6618245 73.3331862,23.8097754 72.9140452,23.8097754 C72.4949042,23.8097754 72.1509988,23.7093801 71.8823187,23.5085865 C71.6136386,23.3077929 71.4148183,23.1017184 71.2858518,22.8903567 C71.0709077,22.4887695 70.2326383,20.5759748 68.7710185,17.1519155 L67.7715335,17.2153236 L63.7091104,17.2153236 L63.7091104,20.7978864 C63.7091104,21.2840183 63.6929899,21.6486117 63.6607483,21.8916777 C63.6285067,22.1347436 63.5264097,22.4147937 63.3544545,22.7318362 C63.0535327,23.3025128 62.2152634,23.5878468 60.8396212,23.5878468 C59.3350125,23.5878468 58.453755,23.1968335 58.195822,22.4147952 C58.0668556,22.0554804 58.0023733,21.5059482 58.0023733,20.7661823 L58.0023733,3.17040951 C58.0023733,2.68427762 58.0184939,2.31968417 58.0507355,2.07661823 C58.0829771,1.83355229 58.185074,1.55350225 58.3570293,1.23645971 C58.657951,0.665783144 59.4962204,0.380449141 60.8718626,0.380449141 L67.8360164,0.380449141 C69.7275244,0.380449141 71.5652688,1.05679641 73.3493048,2.40951123 C74.2090812,3.06473247 74.918386,3.95243826 75.4772407,5.07265522 C76.0360953,6.19287218 76.3155184,7.43988745 76.3155184,8.81373844 C76.3155184,11.2021255 75.5094902,13.1677598 73.8974095,14.7107001 C74.3702865,15.8309171 75.1010854,17.4900815 76.0898283,19.6882431 Z M63.7091104,11.6036988 L67.8360164,11.6036988 C68.4593543,11.6036988 69.0826828,11.3712044 69.7060206,10.9062087 C70.3293585,10.441213 70.6410228,9.74372988 70.6410228,8.81373844 C70.6410228,7.883747 70.3293585,7.18097992 69.7060206,6.70541612 C69.0826828,6.22985231 68.4378602,5.99207398 67.7715335,5.99207398 L63.7091104,5.99207398 L63.7091104,11.6036988 Z M88.4705461,11.9524439 C91.7591907,15.0594607 94.0912991,17.3949724 95.4669413,18.9590489 C96.1762568,19.7410871 96.5309093,20.4015825 96.5309093,20.9405548 C96.5309093,21.4795271 96.1010275,22.1136027 95.2412511,22.8428005 C94.3814748,23.5719984 93.6775434,23.9365918 93.129436,23.9365918 C92.5813286,23.9365918 91.9203854,23.4927389 91.1465867,22.6050198 L84.0534671,14.6472919 L84.0534671,20.8295905 C84.0534671,21.3368585 84.0373465,21.706736 84.0051049,21.9392338 C83.9728633,22.1717317 83.8707664,22.4464978 83.6988111,22.7635403 C83.3978894,23.3342169 82.55962,23.6195509 81.1839778,23.6195509 C79.6793691,23.6195509 78.7981116,23.2179697 78.5401787,22.4147952 C78.4112122,22.0766165 78.34673,21.5376523 78.34673,20.7978864 L78.34673,3.17040951 C78.34673,2.68427762 78.3628505,2.31968417 78.3950921,2.07661823 C78.4273337,1.83355229 78.5294307,1.55350225 78.7013859,1.23645971 C79.0023077,0.665783144 79.8405771,0.380449141 81.2162192,0.380449141 C82.7208279,0.380449141 83.6128325,0.771462404 83.8922598,1.55350066 C83.9997319,1.91281554 84.0534671,2.46234769 84.0534671,3.20211361 L84.0534671,9.25759577 C86.9767067,6.0237619 89.3410563,3.37121247 91.1465867,1.2998679 C91.898891,0.433284967 92.5544606,0 93.1133153,0 C93.6721699,0 94.3814748,0.364593448 95.2412511,1.09379128 C96.1010275,1.82298911 96.5309093,2.45706468 96.5309093,2.99603699 C96.5309093,3.5350093 96.208498,4.17436882 95.5636657,4.91413474 C94.3169899,6.33025807 92.3825221,8.27475646 89.7602042,10.7476882 L88.4705461,11.9524439 Z" id="WORK-Copy-7" fill="#798795"></path>
                <path d="M145.074675,19.6710875 C145.398374,20.4350171 145.560221,20.9867357 145.560221,21.3262599 C145.560221,22.13263 144.891253,22.8116683 143.553298,23.3633952 C142.86274,23.6604789 142.307065,23.8090186 141.886256,23.8090186 C141.465448,23.8090186 141.120174,23.7082238 140.850425,23.5066313 C140.580676,23.3050388 140.381064,23.0981443 140.251585,22.8859416 C140.035785,22.4827566 139.194181,20.5623514 137.726745,17.1246684 L136.723284,17.1883289 L132.644697,17.1883289 L132.644697,20.7851459 C132.644697,21.273212 132.628513,21.6392561 132.596143,21.8832891 C132.563773,22.1273222 132.46127,22.4084865 132.28863,22.7267905 C131.986511,23.2997376 131.144906,23.5862069 129.763791,23.5862069 C128.253196,23.5862069 127.368432,23.1936379 127.109473,22.4084881 C126.979993,22.0477436 126.915254,21.4960249 126.915254,20.7533156 L126.915254,3.08753316 C126.915254,2.59946706 126.931439,2.23342297 126.963809,1.98938992 C126.996179,1.74535687 127.098682,1.46419257 127.271321,1.14588859 C127.57344,0.572941432 128.415045,0.286472149 129.796161,0.286472149 L136.788023,0.286472149 C138.687057,0.286472149 140.532114,0.965510451 142.323248,2.32360743 C143.186445,2.98143565 143.898572,3.87267342 144.45965,4.99734748 C145.020728,6.12202154 145.301263,7.37399841 145.301263,8.75331565 C145.301263,11.1512056 144.492028,13.1246607 142.873533,14.6737401 C143.348292,15.7984141 144.081998,17.4641799 145.074675,19.6710875 Z M132.644697,11.5543767 L136.788023,11.5543767 C137.413841,11.5543767 138.03965,11.3209572 138.665468,10.8541114 C139.291286,10.3872656 139.60419,9.68700732 139.60419,8.75331565 C139.60419,7.81962398 139.291286,7.11406074 138.665468,6.63660477 C138.03965,6.15914881 137.392262,5.9204244 136.723284,5.9204244 L132.644697,5.9204244 L132.644697,11.5543767 Z M158.152048,0 C161.345878,0 164.118857,1.13526716 166.47107,3.40583554 C168.823282,5.67640393 169.999371,8.49335188 169.999371,11.8567639 C169.999371,15.220176 168.877231,18.0848688 166.632918,20.4509284 C164.388605,22.816988 161.626416,24 158.346266,24 C155.066117,24 152.276953,22.8329029 149.97869,20.4986737 C147.680427,18.1644446 146.531313,15.3846315 146.531313,12.1591512 C146.531313,10.3978692 146.855007,8.7480183 147.502405,7.20954907 C148.149803,5.67107984 149.012987,4.38196806 150.091984,3.34217507 C151.170981,2.30238207 152.411808,1.48541411 153.814503,0.891246684 C155.217199,0.297079257 156.663033,0 158.152048,0 Z M154.122016,16.5994695 C155.362862,17.7771942 156.749352,18.3660477 158.281527,18.3660477 C159.813702,18.3660477 161.194797,17.7931092 162.424853,16.6472149 C163.654909,15.5013205 164.269928,13.9628744 164.269928,12.0318302 C164.269928,10.1007861 163.649514,8.55172997 162.408668,7.38461538 C161.167822,6.2175008 159.781332,5.63395225 158.249157,5.63395225 C156.716982,5.63395225 155.335887,6.22280578 154.105831,7.4005305 C152.875775,8.57825523 152.260756,10.1113964 152.260756,12 C152.260756,13.8886036 152.88117,15.4217448 154.122016,16.5994695 Z M188.547228,0.445623342 C188.957247,0.318301751 189.469763,0.25464191 190.084791,0.25464191 C190.699819,0.25464191 191.190755,0.307691777 191.557614,0.413793103 C191.924472,0.51989443 192.205007,0.647214111 192.399227,0.795755968 C192.593446,0.944297825 192.733714,1.16710727 192.820033,1.46419098 C192.949513,1.82493549 193.014252,2.37665411 193.014252,3.1193634 L193.014252,12.7320955 C193.014252,15.5331705 192.129488,18.0795641 190.359933,20.3713528 C189.496736,21.4535863 188.385386,22.3289091 187.025851,22.9973475 C185.666315,23.6657858 184.161138,24 182.510273,24 C180.859408,24 179.359626,23.6604808 178.01088,22.9814324 C176.662134,22.3023839 175.566969,21.4111461 174.725352,20.3076923 C172.977377,18.0583442 172.103403,15.5119506 172.103403,12.668435 L172.103403,3.08753316 C172.103403,2.57824679 172.119588,2.20159273 172.151958,1.95755968 C172.184328,1.71352663 172.286831,1.43236233 172.45947,1.11405836 C172.63211,0.795754377 172.923435,0.572944934 173.333453,0.445623342 C173.743472,0.318301751 174.293752,0.25464191 174.98431,0.25464191 C175.674867,0.25464191 176.225147,0.318301751 176.635166,0.445623342 C177.045185,0.572944934 177.32572,0.795754377 177.476779,1.11405836 C177.735738,1.60212446 177.865216,2.27055279 177.865216,3.1193634 L177.865216,12.668435 C177.865216,13.9628712 178.18891,15.1936281 178.836308,16.3607427 C179.160007,16.9549101 179.645548,17.4323589 180.292946,17.7931034 C180.940344,18.153848 181.70642,18.3342175 182.591197,18.3342175 C184.166532,18.3342175 185.342621,17.7612789 186.119498,16.6153846 C186.896376,15.4694903 187.284809,14.1432436 187.284809,12.6366048 L187.284809,2.89655172 C187.284809,2.06896138 187.392707,1.48541284 187.608506,1.14588859 C187.824305,0.80636435 188.13721,0.572944934 188.547228,0.445623342 Z M211.853437,0.50928382 C212.263456,0.381962228 212.775971,0.318302387 213.390999,0.318302387 C214.006027,0.318302387 214.502358,0.371352255 214.880007,0.477453581 C215.257656,0.583554907 215.538191,0.710874589 215.72162,0.859416446 C215.90505,1.0079583 216.039922,1.23076775 216.126242,1.52785146 C216.255722,1.8673757 216.32046,2.40848435 216.32046,3.15119363 L216.32046,20.8169761 C216.32046,21.3262625 216.304276,21.6976116 216.271906,21.9310345 C216.239536,22.1644574 216.137033,22.4403167 215.964393,22.7586207 C215.662274,23.3315679 214.82067,23.6180371 213.439554,23.6180371 C212.597937,23.6180371 212.015287,23.5543773 211.691588,23.4270557 C211.367889,23.2997341 211.098144,23.0981446 210.882345,22.8222812 C206.026861,16.4562016 202.833079,12.297092 201.300904,10.3448276 L201.300904,20.8169761 C201.300904,21.3262625 201.284719,21.6976116 201.252349,21.9310345 C201.219979,22.1644574 201.117476,22.4403167 200.944837,22.7586207 C200.642718,23.3315679 199.801113,23.6180371 198.419997,23.6180371 C197.082042,23.6180371 196.262017,23.3315679 195.959897,22.7586207 C195.787258,22.4403167 195.684755,22.1538474 195.652385,21.8992042 C195.620015,21.6445611 195.60383,21.273212 195.60383,20.7851459 L195.60383,3.02387268 C195.60383,2.2175026 195.706334,1.62864907 195.911343,1.25729443 C196.116352,0.885939788 196.423862,0.636605411 196.83388,0.50928382 C197.243899,0.381962228 197.772599,0.318302387 198.419997,0.318302387 C199.067395,0.318302387 199.579911,0.376657241 199.95756,0.4933687 C200.335208,0.610080159 200.599559,0.742704828 200.750618,0.891246684 C200.836938,0.95490748 201.085103,1.23076679 201.495122,1.71883289 C206.048487,7.80904902 209.091212,11.830229 210.623387,13.7824934 L210.623387,3.02387268 C210.623387,2.2175026 210.72589,1.62864907 210.9309,1.25729443 C211.135909,0.885939788 211.443418,0.636605411 211.853437,0.50928382 Z M221.790945,0.25464191 L227.779346,0.286472149 C230.908436,0.286472149 233.659836,1.39521438 236.033629,3.6127321 C238.407421,5.83024981 239.594299,8.557013 239.594299,11.7931034 C239.594299,15.0291939 238.434395,17.803702 236.114553,20.1167109 C233.79471,22.4297198 230.983967,23.5862069 227.682237,23.5862069 L221.758576,23.5862069 C220.4422,23.5862069 219.622175,23.3209576 219.298476,22.7904509 C219.039517,22.3448254 218.910039,21.6657871 218.910039,20.7533156 L218.910039,3.05570292 C218.910039,2.54641655 218.926224,2.17506748 218.958594,1.94164456 C218.990964,1.70822164 219.093467,1.43236233 219.266106,1.11405836 C219.568225,0.541111194 220.40983,0.25464191 221.790945,0.25464191 Z M231.987412,16.2493369 C233.239048,15.1140527 233.864856,13.6870112 233.864856,11.9681698 C233.864856,10.2493283 233.255232,8.81167687 232.035966,7.65517241 C230.8167,6.49866796 229.387051,5.9204244 227.746977,5.9204244 L224.639482,5.9204244 L224.639482,17.9522546 L227.779346,17.9522546 C229.333101,17.9522546 230.735776,17.3846211 231.987412,16.2493369 Z" id="ROUND-Copy-7" fill="#798795"></path>
                <path d="M111.457627,24 C104.717881,24 99.2542373,18.627417 99.2542373,12 C99.2542373,5.372583 104.717881,0 111.457627,0 C118.197373,0 123.661017,5.372583 123.661017,12 C123.661017,18.627417 118.197373,24 111.457627,24 Z M103.620246,10.4497064 L108.56448,19.0133721 C108.771973,19.3727604 108.954471,19.6165102 109.111978,19.7446289 C109.462564,20.0624756 110.003328,20.0103901 110.734287,19.5883706 C111.402592,19.2025242 111.729803,18.8287835 111.715929,18.4671373 C111.710542,18.2648829 111.683074,18.1027613 111.633526,17.9807674 C111.583977,17.8587735 111.488064,17.6745606 111.345783,17.4281229 L106.401548,8.8644572 C106.194055,8.50506895 106.013815,8.25317073 105.860821,8.10875497 C105.505722,7.80720529 104.962701,7.86743928 104.231742,8.28945874 C103.563436,8.6753051 103.236225,9.04904581 103.250099,9.41069206 C103.255487,9.61294639 103.284436,9.77763508 103.336949,9.90476306 C103.389462,10.031891 103.483893,10.213537 103.620246,10.4497064 Z M112.637608,16.4374575 L112.876395,16.5254935 C113.273534,16.7069347 113.843669,16.8021812 114.586817,16.8112357 C114.959099,16.8290456 115.398609,16.770388 115.90536,16.635261 C116.412112,16.500134 116.910874,16.2908957 117.401661,16.0075398 C118.36235,15.4528857 119.108494,14.6592938 119.640114,13.6267406 C119.918624,13.0962865 120.046899,12.4985546 120.024944,11.8335268 C120.002989,11.1684991 119.799342,10.5022776 119.413998,9.83484224 C119.028654,9.16740692 118.570944,8.68209613 118.040854,8.37889531 C117.510763,8.07569448 116.993967,7.94623003 116.49045,7.99049807 C115.986933,8.0347661 115.463179,8.12837136 114.919172,8.27131664 C114.375165,8.41426192 113.886981,8.56947566 113.454604,8.73696252 C113.022228,8.90444939 112.622515,8.97777955 112.255455,8.9569552 C111.888395,8.93613086 111.623354,8.78453272 111.460323,8.50215624 C111.297293,8.21977976 111.282088,7.93420685 111.414707,7.64542893 C111.547326,7.35665102 111.783319,7.11429689 112.122693,6.91835928 C112.462067,6.72242168 112.779928,6.6278949 113.076284,6.63477613 C113.179022,6.64391536 113.298482,6.66393501 113.434668,6.69483568 C113.570855,6.72573634 113.660538,6.74241138 113.703722,6.74486131 C114.146,6.76333169 114.476777,6.70926477 114.696065,6.58265893 C115.071987,6.36562035 115.289254,5.89791175 115.347873,5.17951908 C115.390995,4.67543845 115.353272,4.3207211 115.234705,4.11535639 C115.116138,3.90999167 114.809042,3.75186944 114.313409,3.64098494 L113.752868,3.57442241 C113.459611,3.52467878 113.008598,3.56944149 112.399816,3.70871188 C111.791033,3.84798228 111.173383,4.0984792 110.546847,4.46021017 C109.36687,5.14147015 108.629062,6.01581656 108.333401,7.08327564 C108.037741,8.15073471 108.150757,9.13625183 108.672453,10.0398566 C109.051869,10.6970236 109.509579,11.1823344 110.045598,11.4958035 C110.581617,11.8092726 111.110269,11.9592732 111.631571,11.9458098 C112.152873,11.9323465 112.689191,11.8725599 113.240541,11.7664482 C113.791891,11.6603364 114.286711,11.5286732 114.725016,11.3714546 C115.163321,11.214236 115.561551,11.1383388 115.919719,11.1437608 C116.277886,11.1491828 116.525143,11.2699767 116.661495,11.5061461 C117.112051,12.286532 116.851767,12.9570564 115.880636,13.5177394 C115.650906,13.6503741 115.354351,13.7154867 114.990962,13.7130791 C114.627573,13.7106715 114.322396,13.6643904 114.075422,13.5742343 C113.25689,13.362265 112.701441,13.3406845 112.409057,13.5094923 C112.116673,13.6783001 111.911097,13.9612792 111.792321,14.3584381 C111.592294,15.0489445 111.567868,15.5251106 111.719042,15.7869506 C111.870215,16.0487906 112.176401,16.2656241 112.637608,16.4374575 Z" id="Combined-Shape" fill="#6EC991"></path>
            </g>
        </g>
    </g>
</svg>